<svg width="300" height="210" xmlns="http://www.w3.org/2000/svg">
 <!-- Created with SVG-edit - http://svg-edit.googlecode.com/ -->
 <defs>
  <marker refY="50" refX="50" markerHeight="5" markerWidth="5" viewBox="0 0 100 100" orient="auto" markerUnits="strokeWidth" id="se_marker_end_svg_65">
   <path stroke-width="10" stroke="#000000" fill="#000000" d="m100,50l-100,40l30,-40l-30,-40l100,40z" id="svg_29"/>
  </marker>
  <marker refY="50" refX="50" markerHeight="5" markerWidth="5" viewBox="0 0 100 100" orient="auto" markerUnits="strokeWidth" id="se_marker_end_svg_66">
   <path stroke-width="10" stroke="#000000" fill="#000000" d="m100,50l-100,40l30,-40l-30,-40l100,40z" id="svg_41"/>
  </marker>
  <marker refY="50" refX="50" markerHeight="5" markerWidth="5" viewBox="0 0 100 100" orient="auto" markerUnits="strokeWidth" id="se_marker_end_svg_67">
   <path stroke-width="10" stroke="#000000" fill="#000000" d="m100,50l-100,40l30,-40l-30,-40l100,40z" id="svg_42"/>
  </marker>
 </defs>
 <g>
  <title>Layer 1</title>
  <line id="svg_20" y2="220" x2="190" y1="220" x1="180" stroke-linecap="null" stroke-linejoin="null" stroke-width="1.5" stroke="#000000" fill="none"/>
  <circle id="svg_18" r="30" cy="212" cx="205" stroke-linecap="null" stroke-linejoin="null" stroke-width="1.5" stroke="#000000" fill="none"/>
  <line id="svg_21" y2="220" x2="210" y1="220" x1="200" stroke-linecap="null" stroke-linejoin="null" stroke-width="1.5" stroke="#000000" fill="none"/>
  <line id="svg_19" y2="212.5" x2="235" y1="212.5" x1="175" stroke-linecap="null" stroke-linejoin="null" stroke-width="1.5" stroke="#000000" fill="none"/>
  <line id="svg_22" y2="220" x2="230" y1="220" x1="220" stroke-linecap="null" stroke-linejoin="null" stroke-width="1.5" stroke="#000000" fill="none"/>
  <line id="svg_23" y2="228" x2="200" y1="228" x1="190" stroke-linecap="null" stroke-linejoin="null" stroke-width="1.5" stroke="#000000" fill="none"/>
  <line id="svg_24" y2="228" x2="220" y1="228" x1="210" stroke-linecap="null" stroke-linejoin="null" stroke-width="1.5" stroke="#000000" fill="none"/>
  <line id="svg_25" y2="234.5" x2="210" y1="234.5" x1="200" stroke-linecap="null" stroke-linejoin="null" stroke-width="1.5" stroke="#000000" fill="none"/>
  <g id="svg_40">
   <circle id="svg_27" r="30" cy="212.8873" cx="289.8873" stroke-linecap="null" stroke-linejoin="null" stroke-width="1.5" stroke="#000000" fill="none"/>
   <circle id="svg_28" r="10" cy="212.8873" cx="289.8873" stroke-linecap="null" stroke-linejoin="null" stroke-width="1.5" stroke="#000000" fill="none"/>
   <g id="svg_34">
    <line id="svg_30" y2="190.8873" x2="289.8873" y1="198.8873" x1="289.8873" stroke-linecap="null" stroke-linejoin="null" stroke-width="1.5" stroke="#000000" fill="none"/>
    <line id="svg_31" y2="226.8873" x2="289.8873" y1="234.8873" x1="289.8873" stroke-linecap="null" stroke-linejoin="null" stroke-width="1.5" stroke="#000000" fill="none"/>
    <line id="svg_32" y2="212.8873" x2="275.8873" y1="212.8873" x1="267.8873" stroke-linecap="null" stroke-linejoin="null" stroke-width="1.5" stroke="#000000" fill="none"/>
    <line id="svg_33" y2="212.8873" x2="311.8873" y1="212.8873" x1="303.8873" stroke-linecap="null" stroke-linejoin="null" stroke-width="1.5" stroke="#000000" fill="none"/>
   </g>
   <g id="svg_35">
    <line id="svg_36" y2="191" x2="290" y1="199" x1="290" stroke-linecap="null" stroke-linejoin="null" stroke-width="1.5" stroke="#000000" fill="none"/>
    <line id="svg_37" y2="227" x2="290" y1="235" x1="290" stroke-linecap="null" stroke-linejoin="null" stroke-width="1.5" stroke="#000000" fill="none"/>
    <line id="svg_38" y2="213" x2="276" y1="213" x1="268" stroke-linecap="null" stroke-linejoin="null" stroke-width="1.5" stroke="#000000" fill="none"/>
    <line id="svg_39" y2="213" x2="312" y1="213" x1="304" stroke-linecap="null" stroke-linejoin="null" stroke-width="1.5" stroke="#000000" fill="none"/>
   </g>
  </g>
  <rect id="svg_43" ry="10" rx="10" height="60" width="60" y="181.25" x="68.25" stroke-width="1.5" stroke="#000000" fill="none"/>
  <line id="svg_45" y2="235.25" x2="74" y1="187.25" x1="74" stroke-linecap="null" stroke-linejoin="null" stroke-width="1.5" stroke="#000000" fill="none"/>
  <line id="svg_50" y2="234.75" x2="82.5" y1="205.5" x1="82.5" stroke-linecap="null" stroke-linejoin="null" stroke-width="6" stroke="#bcbcbc" fill="none"/>
  <line id="svg_52" y2="235" x2="94" y1="215" x1="94" stroke-linecap="null" stroke-linejoin="null" stroke-width="6" stroke="#bcbcbc" fill="none"/>
  <line id="svg_53" y2="235" x2="105.5" y1="190.5" x1="105.5" stroke-linecap="null" stroke-linejoin="null" stroke-width="6" stroke="#bcbcbc" fill="none"/>
  <line id="svg_54" y2="234.75" x2="117.25" y1="218.75" x1="117.25" stroke-linecap="null" stroke-linejoin="null" stroke-width="6" stroke="#bcbcbc" fill="none"/>
  <path d="m80.5,222l12.5,-9l13,-22.25l13,6.25" id="svg_48" stroke-linecap="null" stroke-linejoin="null" stroke="#000000" fill="none"/>
  <path d="m80.5,225.5l12.5,-9l13,6.25l12.75,-11.75" id="svg_49" stroke-linecap="null" stroke-linejoin="null" stroke="#000000" fill="none"/>
  <line id="svg_47" y2="235.25" x2="122" y1="235.25" x1="73.5" stroke-linecap="null" stroke-linejoin="null" stroke-width="1.5" stroke="#000000" fill="none"/>
  <line id="svg_55" y2="195.25" x2="122" y1="195.25" x1="73" stroke-linecap="null" stroke-linejoin="null" stroke-width="0.2" stroke="#000000" fill="none"/>
  <line id="svg_56" y2="205.25" x2="122" y1="205.25" x1="73" stroke-linecap="null" stroke-linejoin="null" stroke-width="0.2" stroke="#000000" fill="none"/>
  <line id="svg_57" y2="215.25" x2="122" y1="215.25" x1="73" stroke-linecap="null" stroke-linejoin="null" stroke-width="0.2" stroke="#000000" fill="none"/>
  <line id="svg_58" y2="225.25" x2="122" y1="225.25" x1="73" stroke-linecap="null" stroke-linejoin="null" stroke-width="0.2" stroke="#000000" fill="none"/>
  <text xml:space="preserve" text-anchor="middle" font-family="Sans-serif" font-size="16" id="svg_60" y="170" x="100.5" stroke-linecap="null" stroke-linejoin="null" stroke-width="1.5" stroke="#000000" fill="none">analysis</text>
  <text id="svg_61" xml:space="preserve" text-anchor="middle" font-family="Sans-serif" font-size="16" y="170" x="210" stroke-linecap="null" stroke-linejoin="null" stroke-width="1.5" stroke="#000000" fill="none">moisture</text>
  <text id="svg_62" xml:space="preserve" text-anchor="middle" font-family="Sans-serif" font-size="16" y="170" x="290" stroke-linecap="null" stroke-linejoin="null" stroke-width="0" stroke="#000000" fill="#000000">brightness</text>
  <text id="svg_63" xml:space="preserve" text-anchor="middle" font-family="Sans-serif" font-size="16" y="30" x="140" stroke-linecap="null" stroke-linejoin="null" stroke-width="0" stroke="#000000" fill="#000000">mist generator</text>
  <text xml:space="preserve" text-anchor="middle" font-family="Sans-serif" font-size="16" id="svg_64" y="30" x="260" stroke-linecap="null" stroke-linejoin="null" stroke-width="0" stroke="#000000" fill="#000000">lightning</text>
  <path d="m313.00009,74l65.99991,0l0,140l-26,0" marker-end="url(#se_marker_end_svg_65)" id="svg_65" stroke-linecap="null" stroke-linejoin="null" stroke-width="1.5" stroke="#000000" fill="none"/>
  <path marker-end="url(#se_marker_end_svg_66)" id="svg_66" d="m51,212l-31,0l0,-140l53,0" stroke-linecap="null" stroke-linejoin="null" stroke-width="1.5" stroke="#000000" fill="none"/>
  <line marker-end="url(#se_marker_end_svg_67)" stroke-width="1.5" id="svg_67" y2="210" x2="150" y1="210" x1="160" stroke-linecap="null" stroke-linejoin="null" stroke="#000000" fill="none"/>
  <g id="svg_44">
   <line id="svg_7" y2="57" x2="297.04561" y1="57" x1="230" stroke-linecap="null" stroke-linejoin="null" stroke-width="4" stroke="#000000" fill="none"/>
   <rect id="svg_5" ry="10" rx="10" height="68" width="68" y="45" x="229.5" stroke-width="1.5" stroke="#000000" fill="none"/>
   <line id="svg_8" y2="63" x2="297" y1="63" x1="230" stroke-linecap="null" stroke-linejoin="null" stroke-width="3.5" stroke="#000000" fill="none"/>
   <line id="svg_11" y2="69" x2="297" y1="69" x1="230" stroke-linecap="null" stroke-linejoin="null" stroke-width="3" stroke="#000000" fill="none"/>
   <line id="svg_12" y2="75" x2="297" y1="75" x1="230" stroke-linecap="null" stroke-linejoin="null" stroke-width="2.5" stroke="#000000" fill="none"/>
   <line id="svg_13" y2="81" x2="297" y1="81" x1="230" stroke-linecap="null" stroke-linejoin="null" stroke-width="2" stroke="#000000" fill="none"/>
   <line id="svg_14" y2="87" x2="297" y1="87" x1="230" stroke-linecap="null" stroke-linejoin="null" stroke-width="1.5" stroke="#000000" fill="none"/>
   <line id="svg_15" y2="93" x2="297" y1="93" x1="230" stroke-linecap="null" stroke-linejoin="null" stroke="#000000" fill="none"/>
   <line id="svg_16" y2="99" x2="297.5" y1="99" x1="230" stroke-linecap="null" stroke-linejoin="null" stroke-width="0.5" stroke="#000000" fill="none"/>
  </g>
  <g id="svg_46">
   <path d="m109,59.4998c9,0 17,0.1427 27,0c10,-0.1427 11,11.6792 -1,11.9637l15.48599,-0.4272c10.5,-0.7119 12.01401,11.821 0.51401,11.5364l-42,0.4273l0,-23.5002l0,0z" id="svg_3" stroke-linecap="null" stroke-linejoin="null" stroke-width="1.5" stroke="#000000" fill="#cccccc"/>
   <rect ry="10" rx="10" id="svg_1" height="68" width="68" y="46" x="109" stroke-width="1.5" stroke="#000000" fill="none"/>
   <path id="svg_4" d="m130.64301,89.9994c9,0 19.5,0.0971 27,0c7.5,-0.0972 6.5,7.952 -1,8.14571l15.48599,-0.2909c8,-0.4846 7.48601,8.0488 0.51401,7.8548l-42,0.291l0,-16.0006l0,0l0,0l0,0l0,0z" stroke-linecap="null" stroke-linejoin="null" stroke-width="1.5" stroke="#000000" fill="#cccccc"/>
  </g>
 </g>
</svg>
