<svg width="640" height="240" xmlns="http://www.w3.org/2000/svg">
 <defs>
  <marker refY="50" refX="50" markerHeight="5" markerWidth="5" viewBox="0 0 100 100" se_type="rightarrow" orient="auto" markerUnits="strokeWidth" id="se_marker_end_svg_65">
   <path stroke-width="10" stroke="#fff" fill="#fff" d="m100,50l-100,40l30,-40l-30,-40z"/>
  </marker>
  <marker refY="50" refX="50" markerHeight="5" markerWidth="5" viewBox="0 0 100 100" se_type="rightarrow" orient="auto" markerUnits="strokeWidth" id="se_marker_end_svg_66">
   <path stroke-width="10" stroke="#fff" fill="#fff" d="m100,50l-100,40l30,-40l-30,-40z"/>
  </marker>
  <marker refY="50" refX="50" markerHeight="5" markerWidth="5" viewBox="0 0 100 100" se_type="rightarrow" orient="auto" markerUnits="strokeWidth" id="se_marker_end_svg_67">
   <path stroke-width="10" stroke="#fff" fill="#fff" d="m100,50l-100,40l30,-40l-30,-40z"/>
  </marker>
 </defs>
 <g>
  <g id="svg_9">
   <path d="m109,49.49979c9,0 17,0.14272 27,0c10,-0.14272 11,11.67918 -1,11.96375l15.48599,-0.42728c10.5,-0.71184 12.01401,11.82103 0.51401,11.53647l-42,0.42728l0,-23.50021z" id="svg_3" stroke-linecap="null" stroke-linejoin="null" stroke-width="2" stroke="#fff" fill="#cccccc"/>
   <rect ry="10" rx="10" id="svg_1" height="68" width="68" y="36" x="109" stroke-width="2" stroke="#fff" fill="none"/>
   <path transform="rotate(-180 153.74334716796875,87.99925231933592) " id="svg_4" d="m130.64297,79.99937c9,0 19.50003,0.09717 27,0c7.49997,-0.09717 6.5,7.95203 -1,8.14577l15.48599,-0.29091c8,-0.48468 7.48633,8.0486 0.51401,7.85484l-42,0.29092l0,-16.00063z" stroke-linecap="null" stroke-linejoin="null" stroke-width="2" stroke="#fff" fill="#cccccc"/>
  </g>
  <g id="svg_17">
   <line id="svg_7" y2="47" x2="296.54561" y1="47" x1="230" stroke-linecap="null" stroke-linejoin="null" stroke-width="5" stroke="#fff" fill="none"/>
   <rect id="svg_5" ry="10" rx="10" height="68" width="68" y="36" x="229" stroke-width="2" stroke="#fff" fill="none"/>
   <line id="svg_6" y2="95" x2="296.04561" y1="95" x1="229.5" stroke-linecap="null" stroke-linejoin="null" stroke="#fff" fill="none"/>
   <line id="svg_8" y2="53" x2="296" y1="53" x1="230" stroke-linecap="null" stroke-linejoin="null" stroke-width="4.5" stroke="#fff" fill="none"/>
   <line id="svg_11" y2="59" x2="296" y1="59" x1="230" stroke-linecap="null" stroke-linejoin="null" stroke-width="4" stroke="#fff" fill="none"/>
   <line id="svg_12" y2="65" x2="296" y1="65" x1="230" stroke-linecap="null" stroke-linejoin="null" stroke-width="3.5" stroke="#fff" fill="none"/>
   <line id="svg_13" y2="71" x2="296" y1="71" x1="230" stroke-linecap="null" stroke-linejoin="null" stroke-width="3" stroke="#fff" fill="none"/>
   <line id="svg_14" y2="77" x2="296" y1="77" x1="230" stroke-linecap="null" stroke-linejoin="null" stroke-width="2.5" stroke="#fff" fill="none"/>
   <line id="svg_15" y2="83" x2="296" y1="83" x1="230" stroke-linecap="null" stroke-linejoin="null" stroke-width="2" stroke="#fff" fill="none"/>
   <line id="svg_16" y2="89" x2="296" y1="89" x1="230" stroke-linecap="null" stroke-linejoin="null" stroke-width="1.5" stroke="#fff" fill="none"/>
  </g>
  <line id="svg_20" y2="210" x2="194.25" y1="210" x1="184.75" stroke-linecap="null" stroke-linejoin="null" stroke-width="2" stroke="#fff" fill="none"/>
  <circle id="svg_18" r="30" cy="202" cx="209" stroke-linecap="null" stroke-linejoin="null" stroke-width="2" stroke="#fff" fill="none"/>
  <line id="svg_21" y2="210.25" x2="213.25" y1="210.25" x1="203.75" stroke-linecap="null" stroke-linejoin="null" stroke-width="2" stroke="#fff" fill="none"/>
  <line cy="300" id="svg_19" y2="202" x2="239" y1="202" x1="179" stroke-linecap="null" stroke-linejoin="null" stroke-width="2" stroke="#fff" fill="none"/>
  <line id="svg_22" y2="210.25" x2="233" y1="210.25" x1="223.5" stroke-linecap="null" stroke-linejoin="null" stroke-width="2" stroke="#fff" fill="none"/>
  <line id="svg_23" y2="218.5" x2="203.75" y1="218.5" x1="194.25" stroke-linecap="null" stroke-linejoin="null" stroke-width="2" stroke="#fff" fill="none"/>
  <line id="svg_24" y2="218.25" x2="223.5" y1="218.25" x1="214" stroke-linecap="null" stroke-linejoin="null" stroke-width="2" stroke="#fff" fill="none"/>
  <line id="svg_25" y2="225.25" x2="213.25" y1="225.25" x1="203.75" stroke-linecap="null" stroke-linejoin="null" stroke-width="2" stroke="#fff" fill="none"/>
  <g id="svg_40">
   <circle id="svg_27" r="30" cy="202.8873" cx="289.8873" stroke-linecap="null" stroke-linejoin="null" stroke-width="2" stroke="#fff" fill="none"/>
   <circle id="svg_28" r="10" cy="202.8873" cx="289.8873" stroke-linecap="null" stroke-linejoin="null" stroke-width="2" stroke="#fff" fill="none"/>
   <g id="svg_34">
    <line id="svg_30" y2="180.8873" x2="289.8873" y1="188.8873" x1="289.8873" stroke-linecap="null" stroke-linejoin="null" stroke-width="2" stroke="#fff" fill="none"/>
    <line id="svg_31" y2="216.8873" x2="289.8873" y1="224.8873" x1="289.8873" stroke-linecap="null" stroke-linejoin="null" stroke-width="2" stroke="#fff" fill="none"/>
    <line id="svg_32" y2="202.8873" x2="275.8873" y1="202.8873" x1="267.8873" stroke-linecap="null" stroke-linejoin="null" stroke-width="2" stroke="#fff" fill="none"/>
    <line id="svg_33" y2="202.8873" x2="311.8873" y1="202.8873" x1="303.8873" stroke-linecap="null" stroke-linejoin="null" stroke-width="2" stroke="#fff" fill="none"/>
   </g>
   <g transform="rotate(45 290,203) " id="svg_35">
    <line id="svg_36" y2="181" x2="290" y1="189" x1="290" stroke-linecap="null" stroke-linejoin="null" stroke-width="2" stroke="#fff" fill="none"/>
    <line id="svg_37" y2="217" x2="290" y1="225" x1="290" stroke-linecap="null" stroke-linejoin="null" stroke-width="2" stroke="#fff" fill="none"/>
    <line id="svg_38" y2="203" x2="276" y1="203" x1="268" stroke-linecap="null" stroke-linejoin="null" stroke-width="2" stroke="#fff" fill="none"/>
    <line id="svg_39" y2="203" x2="312" y1="203" x1="304" stroke-linecap="null" stroke-linejoin="null" stroke-width="2" stroke="#fff" fill="none"/>
   </g>
  </g>
  <g id="svg_59">
   <rect y2="334" x1="110.7" y1="309" id="svg_43" ry="10" rx="10" height="60" width="60" y="171.25" x="68.25" stroke-width="2" stroke="#fff" fill="none"/>
   <line id="svg_45" y2="225.25" x2="74" y1="177.25" x1="74" stroke-linecap="null" stroke-linejoin="null" stroke-width="1.5" stroke="#fff" fill="none"/>
   <line x="112" id="svg_50" y2="224.75" x2="82.5" y1="195.5" x1="82.5" stroke-linecap="null" stroke-linejoin="null" stroke-width="6" stroke="#bcbcbc" fill="none"/>
   <line id="svg_52" x="114" y2="225" x2="94" y1="205" x1="94" stroke-linecap="null" stroke-linejoin="null" stroke-width="6" stroke="#bcbcbc" fill="none"/>
   <line id="svg_53" x="114" y2="225" x2="105.5" y1="180.5" x1="105.5" stroke-linecap="null" stroke-linejoin="null" stroke-width="6" stroke="#bcbcbc" fill="none"/>
   <line id="svg_54" x="114" y2="224.75" x2="117.25" y1="208.75" x1="117.25" stroke-linecap="null" stroke-linejoin="null" stroke-width="6" stroke="#bcbcbc" fill="none"/>
   <path d="m80.5,212l12.5,-9l13,-22.25l13,6.25" id="svg_48" stroke-linecap="null" stroke-linejoin="null" stroke="#fff" fill="none"/>
   <path d="m80.5,215.5l12.5,-9l13,6.25l12.75,-11.75" id="svg_49" stroke-linecap="null" stroke-linejoin="null" stroke="#fff" fill="none"/>
   <line id="svg_47" y2="225.25" x2="122" y1="225.25" x1="73.5" stroke-linecap="null" stroke-linejoin="null" stroke-width="1.5" stroke="#fff" fill="none"/>
   <line id="svg_55" y2="185.25" x2="122" y1="185.25" x1="73" stroke-linecap="null" stroke-linejoin="null" stroke-width="0.2" stroke="#fff" fill="none"/>
   <line id="svg_56" y2="195.25" x2="122" y1="195.25" x1="73" stroke-linecap="null" stroke-linejoin="null" stroke-width="0.2" stroke="#fff" fill="none"/>
   <line id="svg_57" y2="205.25" x2="122" y1="205.25" x1="73" stroke-linecap="null" stroke-linejoin="null" stroke-width="0.2" stroke="#fff" fill="none"/>
   <line id="svg_58" y2="215.25" x2="122" y1="215.25" x1="73" stroke-linecap="null" stroke-linejoin="null" stroke-width="0.2" stroke="#fff" fill="none"/>
  </g>
  <text xml:space="preserve" text-anchor="middle" font-family="Sans-serif" font-size="16" id="svg_60" y="162" x="100" stroke-linecap="null" stroke-linejoin="null" stroke-width="0" stroke="#fff" fill="#fff">analysis</text>
  <text id="svg_61" xml:space="preserve" text-anchor="middle" font-family="Sans-serif" font-size="16" y="162" x="208" stroke-linecap="null" stroke-linejoin="null" stroke-width="0" stroke="#fff" fill="#fff">moisture</text>
  <text id="svg_62" xml:space="preserve" text-anchor="middle" font-family="Sans-serif" font-size="16" y="161" x="289" stroke-linecap="null" stroke-linejoin="null" stroke-width="0" stroke="#fff" fill="#fff">brightness</text>
  <text id="svg_63" xml:space="preserve" text-anchor="middle" font-family="Sans-serif" font-size="16" y="23" x="144" stroke-linecap="null" stroke-linejoin="null" stroke-width="0" stroke="#fff" fill="#fff">mist generator</text>
  <text xml:space="preserve" text-anchor="middle" font-family="Sans-serif" font-size="16" id="svg_64" y="23" x="263" stroke-linecap="null" stroke-linejoin="null" stroke-width="0" stroke="#fff" fill="#fff">lightning</text>
  <path d="m313.00009,64l65.99991,0l0,140l-26,0" marker-end="url(#se_marker_end_svg_65)" id="svg_65" stroke-linecap="null" stroke-linejoin="null" stroke-width="2" stroke="#fff" fill="none"/>
  <path marker-end="url(#se_marker_end_svg_66)" id="svg_66" d="m51,202l-31,0l0,-140l53,0" stroke-linecap="null" stroke-linejoin="null" stroke-width="2" stroke="#fff" fill="none"/>
  <line marker-end="url(#se_marker_end_svg_67)" stroke-width="2" id="svg_67" y2="201" x2="146" y1="201" x1="164" stroke-linecap="null" stroke-linejoin="null" stroke="#fff" fill="none"/>
 </g>
</svg>
