<svg xmlns="http://www.w3.org/2000/svg" width="300" height="210"><!-- Created with SVG-edit - http://svg-edit.googlecode.com/ --><defs><marker id="se_marker_end_svg_65" markerUnits="strokeWidth" orient="auto" viewBox="0 0 100 100" markerWidth="5" markerHeight="5" refX="50" refY="50"><path id="svg_29" d="m100 50l-100 40l30 -40l-30 -40l100 40z" fill="#ffffff" stroke="#ffffff" stroke-width="10"/></marker><marker id="se_marker_end_svg_66" markerUnits="strokeWidth" orient="auto" viewBox="0 0 100 100" markerWidth="5" markerHeight="5" refX="50" refY="50"><path id="svg_41" d="m100 50l-100 40l30 -40l-30 -40l100 40z" fill="#ffffff" stroke="#ffffff" stroke-width="10"/></marker><marker id="se_marker_end_svg_67" markerUnits="strokeWidth" orient="auto" viewBox="0 0 100 100" markerWidth="5" markerHeight="5" refX="50" refY="50"><path id="svg_42" d="m100 50l-100 40l30 -40l-30 -40l100 40z" fill="#ffffff" stroke="#ffffff" stroke-width="10"/></marker></defs><g><title>Layer 1</title><line fill="none" stroke="#ffffff" stroke-width="1.5" stroke-linejoin="null" stroke-linecap="null" x1="57.8" y1="183.7" x2="93.9" y2="183.7" id="svg_47"/><line fill="none" stroke="#ffffff" stroke-width="0.2" stroke-linejoin="null" stroke-linecap="null" x1="57.4" y1="176.3" x2="93.9" y2="176.3" id="svg_58"/><circle fill="none" stroke="#ffffff" stroke-width="1.5" stroke-linejoin="null" stroke-linecap="null" cx="218.7" cy="167.1" r="22.3" id="svg_27"/><circle fill="none" stroke="#ffffff" stroke-width="1.5" stroke-linejoin="null" stroke-linecap="null" cx="218.7" cy="167.4" r="7.4" id="svg_28"/><g id="svg_35"><line fill="none" stroke="#ffffff" stroke-width="1.5" stroke-linejoin="null" stroke-linecap="null" x1="218.8" y1="156.7" x2="218.8" y2="150.8" id="svg_36"/><line fill="none" stroke="#ffffff" stroke-width="1.5" stroke-linejoin="null" stroke-linecap="null" x1="218.8" y1="183.5" x2="218.8" y2="177.6" id="svg_37"/><line fill="none" stroke="#ffffff" stroke-width="1.5" stroke-linejoin="null" stroke-linecap="null" x1="202.4" y1="167.2" x2="208.4" y2="167.2" id="svg_38"/><line fill="none" stroke="#ffffff" stroke-width="1.5" stroke-linejoin="null" stroke-linecap="null" x1="229.2" y1="167.2" x2="235.2" y2="167.2" id="svg_39"/></g><rect fill="none" stroke="#ffffff" stroke-width="1.5" x="53.9" y="143.5" width="44.6" height="44.6" rx="10" ry="10" id="svg_43"/><line fill="none" stroke="#ffffff" stroke-width="1.5" stroke-linejoin="null" stroke-linecap="null" x1="58.2" y1="147.6" x2="58.2" y2="183.3" id="svg_45"/><line fill="none" stroke="#bcbcbc" stroke-width="6" stroke-linejoin="null" stroke-linecap="null" x1="64.5" y1="161.6" x2="64.5" y2="183.3" id="svg_50"/><line fill="none" stroke="#bcbcbc" stroke-width="6" stroke-linejoin="null" stroke-linecap="null" x1="73" y1="168.6" x2="73" y2="183.5" id="svg_52"/><line fill="none" stroke="#bcbcbc" stroke-width="6" stroke-linejoin="null" stroke-linecap="null" x1="81.6" y1="150.4" x2="81.6" y2="183.5" id="svg_53"/><line fill="none" stroke="#bcbcbc" stroke-width="6" stroke-linejoin="null" stroke-linecap="null" x1="90.3" y1="171.4" x2="90.3" y2="183.3" id="svg_54"/><path fill="none" stroke="#ffffff" stroke-linejoin="null" stroke-linecap="null" id="svg_48" d="m62.99582 173.85358l9.29666 -6.69359l9.66852 -16.54805l9.66853 4.6"/><path fill="none" stroke="#ffffff" stroke-linejoin="null" stroke-linecap="null" id="svg_49" d="m62.99582 176.45665l9.29666 -6.6936l9.66852 4.64833l9.48259 -8.7"/><line fill="none" stroke="#ffffff" stroke-width="0.2" stroke-linejoin="null" stroke-linecap="null" x1="57.4" y1="154" x2="93.9" y2="154" id="svg_55"/><line fill="none" stroke="#ffffff" stroke-width="0.2" stroke-linejoin="null" stroke-linecap="null" x1="57.4" y1="161.4" x2="93.9" y2="161.4" id="svg_56"/><line fill="none" stroke="#ffffff" stroke-width="0.2" stroke-linejoin="null" stroke-linecap="null" x1="57.4" y1="168.8" x2="93.9" y2="168.8" id="svg_57"/><text transform="matrix(0.7437325716018677,0,0,0.7437325716018677,5.1253485679626465,4.744951603934169) " fill="#ffffff" stroke="#ffffff" stroke-width="0" stroke-linejoin="null" stroke-linecap="null" x="287.8" y="175.4" font-size="12" font-family="Sans-serif" text-anchor="middle" xml:space="preserve" id="svg_62">brightness</text><text transform="matrix(0.7437325716018677,0,0,0.7437325716018677,5.1253485679626465,4.744951603934169) " fill="#ffffff" stroke="#ffffff" stroke-width="0" stroke-linejoin="null" stroke-linecap="null" x="137.3" y="35.4" font-size="12" font-family="Sans-serif" text-anchor="middle" xml:space="preserve" id="svg_63">mist generator</text><text transform="matrix(0.7437325716018677,0,0,0.7437325716018677,5.1253485679626465,4.744951603934169) " fill="#ffffff" stroke="#ffffff" stroke-width="0" stroke-linejoin="null" stroke-linecap="null" x="257.3" y="35.4" id="svg_64" font-size="12" font-family="Sans-serif" text-anchor="middle" xml:space="preserve">lightning</text><path fill="none" stroke="#ffffff" stroke-width="1.5" stroke-linejoin="null" stroke-linecap="null" id="svg_65" marker-end="url(#se_marker_end_svg_65)" d="m235.91371 63.78116l49.08629 0l0 104.12256l-19.33707 0"/><path fill="none" stroke="#ffffff" stroke-width="1.5" stroke-linejoin="null" stroke-linecap="null" d="m41.05571 166.41626l-23.05571 0l0 -104.12256l39.41783 0" id="svg_66" marker-end="url(#se_marker_end_svg_66)"/><line fill="none" stroke="#ffffff" stroke-linejoin="null" stroke-linecap="null" x1="122.1" y1="164.9" x2="114.7" y2="164.9" id="svg_67" stroke-width="1.5" marker-end="url(#se_marker_end_svg_67)"/><g id="svg_44"><line fill="none" stroke="#ffffff" stroke-width="4" stroke-linejoin="null" stroke-linecap="null" x1="174.2" y1="51.1" x2="224" y2="51.1" id="svg_7"/><rect fill="none" stroke="#ffffff" stroke-width="1.5" x="173.8" y="42.2" width="50.6" height="50.6" rx="10" ry="10" id="svg_5"/><line fill="none" stroke="#ffffff" stroke-width="3.5" stroke-linejoin="null" stroke-linecap="null" x1="174.2" y1="55.6" x2="224" y2="55.6" id="svg_8"/><line fill="none" stroke="#ffffff" stroke-width="3" stroke-linejoin="null" stroke-linecap="null" x1="174.2" y1="60.1" x2="224" y2="60.1" id="svg_11"/><line fill="none" stroke="#ffffff" stroke-width="2.5" stroke-linejoin="null" stroke-linecap="null" x1="174.2" y1="64.5" x2="224" y2="64.5" id="svg_12"/><line fill="none" stroke="#ffffff" stroke-width="2" stroke-linejoin="null" stroke-linecap="null" x1="174.2" y1="69" x2="224" y2="69" id="svg_13"/><line fill="none" stroke="#ffffff" stroke-width="1.5" stroke-linejoin="null" stroke-linecap="null" x1="174.2" y1="73.4" x2="224" y2="73.4" id="svg_14"/><line fill="none" stroke="#ffffff" stroke-linejoin="null" stroke-linecap="null" x1="174.2" y1="77.9" x2="224" y2="77.9" id="svg_15"/><line fill="none" stroke="#ffffff" stroke-width="0.5" stroke-linejoin="null" stroke-linecap="null" x1="174.2" y1="82.4" x2="224.4" y2="82.4" id="svg_16"/></g><text transform="matrix(0.7437325716018677,0,0,0.7437325716018677,5.1253485679626465,4.744951603934169) " fill="#ffffff" stroke="#ffffff" stroke-width="0" stroke-linejoin="null" stroke-linecap="null" x="201.3" y="175.9" font-size="12" font-family="Sans-serif" text-anchor="middle" xml:space="preserve" id="svg_26">moisture</text><text transform="matrix(0.7437325716018677,0,0,0.7437325716018677,5.1253485679626465,4.744951603934169) " fill="#ffffff" stroke="#ffffff" stroke-width="0" stroke-linejoin="null" stroke-linecap="null" x="95.3" y="176.9" font-size="12" font-family="Sans-serif" text-anchor="middle" xml:space="preserve" id="svg_51">analysis</text><g id="svg_59"><path fill="#cccccc" stroke="#ffffff" stroke-width="1.5" stroke-linejoin="null" stroke-linecap="null" id="svg_3" d="m83.44846 51.13756c6.6936 0 12.6 0.1 20.1 0c7.43732 -0.1 8.2 8.7 -0.7 8.89779l11.51743 -0.31772c7.8092 -0.5 8.9 8.8 0.4 8.58l-31.23676 0.31779l0 -17.47786l0 0z"/><rect fill="none" stroke="#ffffff" stroke-width="1.5" x="83.4" y="42.2" width="50.6" height="50.6" id="svg_1" rx="10" ry="10"/><path fill="#cccccc" stroke="#ffffff" stroke-width="1.5" stroke-linejoin="null" stroke-linecap="null" d="m133.90601 83.4894c-6.69401 0 -14.5 -0.1 -20.1 0c-5.578 0.1 -4.8 -5.9 0.7 -6.0582l-11.518 0.2163c-5.9494 0.4 -5.6 -6 -0.4 -5.8418l31.23701 -0.2165l0 11.9002l0 0l0 0l0 0l0 0l0 0l0 0z" id="svg_4"/></g><g id="svg_2"><line fill="none" stroke="#ffffff" stroke-width="1.5" stroke-linejoin="null" stroke-linecap="null" x1="144.4" y1="178.3" x2="151.9" y2="178.3" id="svg_23"/><line fill="none" stroke="#ffffff" stroke-width="1.5" stroke-linejoin="null" stroke-linecap="null" x1="159.3" y1="178.3" x2="166.7" y2="178.3" id="svg_24"/><line fill="none" stroke="#ffffff" stroke-width="1.5" stroke-linejoin="null" stroke-linecap="null" x1="151.9" y1="183.2" x2="159.3" y2="183.2" id="svg_25"/><line fill="none" stroke="#ffffff" stroke-width="1.5" stroke-linejoin="null" stroke-linecap="null" x1="137" y1="172.4" x2="144.4" y2="172.4" id="svg_20"/><circle fill="none" stroke="#ffffff" stroke-width="1.5" stroke-linejoin="null" stroke-linecap="null" cx="155.6" cy="166.4" r="22.3" id="svg_18"/><line fill="none" stroke="#ffffff" stroke-width="1.5" stroke-linejoin="null" stroke-linecap="null" x1="151.9" y1="172.4" x2="159.3" y2="172.4" id="svg_21"/><line fill="none" stroke="#ffffff" stroke-width="1.5" stroke-linejoin="null" stroke-linecap="null" x1="133.3" y1="166.8" x2="177.9" y2="166.8" id="svg_19"/><line fill="none" stroke="#ffffff" stroke-width="1.5" stroke-linejoin="null" stroke-linecap="null" x1="166.7" y1="172.4" x2="174.2" y2="172.4" id="svg_22"/></g><g transform="rotate(45 218.47445678710938,167.49333190917972) " id="svg_70"><line id="svg_71" fill="none" stroke="#ffffff" stroke-width="1.5" stroke-linejoin="null" stroke-linecap="null" x1="218.5" y1="157.1" x2="218.5" y2="151.1"/><line id="svg_72" fill="none" stroke="#ffffff" stroke-width="1.5" stroke-linejoin="null" stroke-linecap="null" x1="218.5" y1="183.9" x2="218.5" y2="177.9"/><line id="svg_73" fill="none" stroke="#ffffff" stroke-width="1.5" stroke-linejoin="null" stroke-linecap="null" x1="202.1" y1="167.5" x2="208.1" y2="167.5"/><line id="svg_74" fill="none" stroke="#ffffff" stroke-width="1.5" stroke-linejoin="null" stroke-linecap="null" x1="228.9" y1="167.5" x2="234.8" y2="167.5"/></g></g></svg>